# xmcd CD database file
#
# Track frame offsets:
#	150
#	19380
#	42759
#	63290
#	94983
#	112970
#	133952
#	152718
#	176945
#	193518
#	222536
#	245507
#	267893
#	284050
#	303721
#	316337
#	329561
#
# Disc length: 4654 seconds
#
# Revision: 5
# Processed by: cddbd v1.5PL3 Copyright (c) Steve Scherf et al.
# Submitted via: CDex 1.51
#
DISCID=0e122c11
DTITLE=Cyrus Chestnut - Cyrus Chestnut
DYEAR=2002
DGENRE=Jazz
TTITLE0=Footloose And Fancy Free
TTITLE1=Swing Low, Sweet Chariot
TTITLE2=What A Friend We Have In Jesus
TTITLE3=Elegant Flower
TTITLE4=I Don't Know Yet
TTITLE5=Hello
TTITLE6=Stompin' At The Savoy
TTITLE7=In The Garden
TTITLE8=Cowpoke
TTITLE9=Blues Just To Be So..
TTITLE10=Polka Dots And Moonbeams
TTITLE11=Sentimental Improvisation
TTITLE12=Blues In The Closet 
TTITLE13=My Funny Valentine
TTITLE14=Lover
TTITLE15=In The Hall Of The Mountain King
TTITLE16=Toddler's Lullaby
EXTD=YEAR: 2002
EXTT0=
EXTT1=
EXTT2=
EXTT3=
EXTT4=
EXTT5=
EXTT6=
EXTT7=
EXTT8=
EXTT9=
EXTT10=
EXTT11=
EXTT12=
EXTT13=
EXTT14=
EXTT15=
EXTT16=
PLAYORDER=
